<?xml version="1.0" standalone="no"?>
<!DOCTYPE svg PUBLIC "-//W3C//DTD SVG 20010904//EN"
 "http://www.w3.org/TR/2001/REC-SVG-20010904/DTD/svg10.dtd">
<svg version="1.0" xmlns="http://www.w3.org/2000/svg"
 width="1024.000000pt" height="1024.000000pt" viewBox="0 0 1024.000000 1024.000000"
 preserveAspectRatio="xMidYMid meet">

<g transform="translate(0.000000,1024.000000) scale(0.100000,-0.100000)"
fill="#000000" stroke="none">
<path d="M4956 10205 c-139 -29 -267 -84 -366 -158 -48 -36 -3700 -2931 -4143
-3285 -197 -157 -266 -236 -338 -387 -86 -183 -83 -148 -87 -855 -2 -442 0
-647 8 -699 39 -243 178 -463 380 -601 79 -53 4320 -2307 4394 -2335 191 -72
434 -73 625 -3 85 31 2837 1498 2881 1536 21 18 51 58 67 90 23 48 28 69 27
132 -1 123 -61 217 -172 268 -47 21 -65 24 -136 20 l-81 -4 -205 -111 c-113
-60 -739 -394 -1392 -742 -880 -468 -1201 -635 -1243 -643 -42 -9 -68 -9 -111
0 -82 17 -4301 2260 -4359 2317 -23 22 -52 63 -66 90 l-24 50 0 590 0 590 23
46 c12 25 35 59 50 77 44 50 4261 3389 4311 3414 64 31 178 31 241 0 61 -30
4287 -3383 4323 -3430 16 -20 36 -53 45 -72 16 -32 17 -224 17 -2645 l0 -2610
-21 -46 c-31 -67 -87 -124 -152 -156 l-57 -28 -4275 0 -4275 0 -57 28 c-65 32
-121 89 -152 156 l-21 46 -5 1275 -5 1275 -22 41 c-36 67 -70 101 -135 133
-104 52 -223 42 -314 -28 -27 -21 -60 -59 -78 -91 l-31 -55 -3 -1280 c-3
-1411 -4 -1365 59 -1525 104 -261 312 -448 596 -537 l88 -28 4355 0 4355 0 88
28 c337 105 571 355 638 682 18 86 19 196 19 2717 0 2823 2 2684 -49 2832 -59
169 -161 305 -330 440 -302 241 -4143 3287 -4191 3323 -73 55 -206 118 -305
144 -104 27 -292 34 -389 14z"/>
</g>
</svg>
